<svg width="53" height="64" viewBox="0 0 53 64" fill="none" xmlns="http://www.w3.org/2000/svg">
<path d="M0.780989 55.0333C0.117426 54.5373 -0.0184451 53.5973 0.477514 52.9338L8.55963 42.1204C9.05559 41.4568 9.99557 41.3209 10.6591 41.8169C11.3227 42.3129 11.4586 43.2528 10.9626 43.9164L3.7785 53.5283L13.3904 60.7124C14.054 61.2084 14.1898 62.1483 13.6939 62.8119C13.1979 63.4755 12.2579 63.6113 11.5944 63.1154L0.780989 55.0333ZM44.7942 0.285546C45.1337 0.912491 45.4614 1.53197 45.7776 2.14408L43.1121 3.5208C42.8051 2.92645 42.4865 2.32418 42.1561 1.71391L44.7942 0.285546ZM47.582 5.82557C48.1807 7.11943 48.7243 8.3784 49.2148 9.60356L46.4297 10.7185C45.9599 9.54505 45.4373 8.33441 44.8593 7.08538L47.582 5.82557ZM50.6331 13.4955C51.0852 14.8791 51.4639 16.2167 51.7722 17.5101L48.854 18.2057C48.5659 16.9974 48.2099 15.7386 47.7815 14.4273L50.6331 13.4955ZM52.5405 21.6394C52.7316 23.1038 52.8224 24.5062 52.8179 25.8495L49.8179 25.8394C49.8219 24.6384 49.7408 23.3693 49.5657 22.0275L52.5405 21.6394ZM52.4509 30.1422C52.1932 31.6181 51.8033 33.0064 51.2924 34.3116L48.4988 33.2181C48.9348 32.1042 49.2715 30.9097 49.4956 29.6261L52.4509 30.1422ZM49.2799 38.1775C48.4742 39.3895 47.5502 40.5027 46.5275 41.5261L44.4054 39.4056C45.2974 38.5129 46.093 37.5524 46.7815 36.5167L49.2799 38.1775ZM43.2499 44.2888C42.1139 45.1012 40.9059 45.8414 39.642 46.5181L38.2261 43.8732C39.3892 43.2506 40.4855 42.5775 41.5049 41.8486L43.2499 44.2888ZM35.8502 48.303C34.5845 48.8273 33.2797 49.3048 31.9476 49.7419L31.0123 46.8914C32.2813 46.475 33.5143 46.0233 34.7021 45.5314L35.8502 48.303ZM27.9808 50.9116C26.6616 51.261 25.3251 51.5794 23.9812 51.8719L23.3431 48.9406C24.6492 48.6563 25.9419 48.3482 27.2127 48.0116L27.9808 50.9116ZM19.962 52.6725C18.6151 52.9184 17.2689 53.1438 15.9332 53.3538L15.4673 50.3902C16.7833 50.1833 18.1048 49.962 19.4234 49.7213L19.962 52.6725ZM11.9086 53.9506C10.5418 54.143 9.19527 54.3243 7.88192 54.4996L7.48487 51.526C8.79681 51.3508 10.1346 51.1707 11.4903 50.9799L11.9086 53.9506ZM3.88046 55.0371C3.20439 55.1299 2.54166 55.2227 1.89359 55.3164L1.46441 52.3472C2.12139 52.2522 2.79148 52.1585 3.47255 52.065L3.88046 55.0371Z" fill="#0774FF"/>
</svg>
