<svg width="19" height="19" viewBox="0 0 19 19" fill="none" xmlns="http://www.w3.org/2000/svg">
<g clip-path="url(#clip0_278_2701)">
<path d="M11.1181 6.23795C11.1758 5.83325 11.1496 5.42103 11.0411 5.0269C10.9326 4.63277 10.7443 4.26517 10.4877 3.94696C10.2311 3.62874 9.91178 3.36671 9.5496 3.17716C9.18743 2.98761 8.79013 2.8746 8.38242 2.84515C7.9747 2.8157 7.56529 2.87044 7.17963 3.00596C6.79397 3.14149 6.44032 3.35491 6.14066 3.63294C5.841 3.91098 5.60175 4.24769 5.43777 4.62214C5.2738 4.99659 5.18861 5.40076 5.1875 5.80954C5.1875 6.16344 5.20613 6.55459 5.5861 6.55459C5.6401 6.5552 5.69359 6.54407 5.74286 6.52196C5.79212 6.49984 5.836 6.46728 5.87143 6.42653C5.90687 6.38578 5.93302 6.33782 5.94808 6.28595C5.96313 6.23409 5.96673 6.17958 5.95863 6.12619C5.91346 5.80922 5.93692 5.48625 6.02741 5.17914C6.11791 4.87202 6.27332 4.58793 6.48314 4.3461C6.69296 4.10426 6.95228 3.91033 7.24356 3.77742C7.53483 3.64451 7.85127 3.57572 8.17143 3.57572C8.4916 3.57572 8.80803 3.64451 9.09931 3.77742C9.39059 3.91033 9.64991 4.10426 9.85973 4.3461C10.0695 4.58793 10.225 4.87202 10.3155 5.17914C10.4059 5.48625 10.4294 5.80922 10.3842 6.12619C10.3781 6.21929 10.4071 6.31129 10.4656 6.38402C10.524 6.45674 10.6076 6.50489 10.6999 6.51893C10.7921 6.53298 10.8863 6.5119 10.9637 6.45987C11.0412 6.40784 11.0963 6.32865 11.1181 6.23795Z" fill="white"/>
<path d="M8.16706 1.7117C8.79243 1.71174 9.4095 1.85492 9.97099 2.13026C10.5325 2.4056 11.0235 2.80581 11.4065 3.30022C11.7894 3.79463 12.0541 4.37014 12.1803 4.98265C12.3065 5.59516 12.2908 6.22842 12.1345 6.83394C12.1098 6.92977 12.1241 7.0315 12.1744 7.11673C12.2247 7.20196 12.3068 7.26372 12.4027 7.28842C12.4985 7.31312 12.6002 7.29874 12.6855 7.24844C12.7707 7.19813 12.8325 7.11604 12.8572 7.0202C13.0412 6.30475 13.0592 5.55667 12.9096 4.83321C12.7601 4.10976 12.447 3.4301 11.9944 2.84627C11.5417 2.26243 10.9615 1.78989 10.2981 1.4648C9.63477 1.13971 8.90581 0.970703 8.16706 0.970703C7.42831 0.970703 6.69935 1.13971 6.03597 1.4648C5.37259 1.78989 4.79238 2.26243 4.33974 2.84627C3.8871 3.4301 3.57402 4.10976 3.42448 4.83321C3.27494 5.55667 3.29289 6.30475 3.47695 7.0202C3.50165 7.11604 3.56341 7.19813 3.64865 7.24844C3.69085 7.27334 3.73754 7.28969 3.78606 7.29655C3.83459 7.30341 3.88398 7.30065 3.93144 7.28842C3.97889 7.27619 4.02347 7.25473 4.06263 7.22527C4.10179 7.19581 4.13477 7.15893 4.15967 7.11673C4.18458 7.07453 4.20093 7.02783 4.20779 6.97931C4.21465 6.93079 4.21189 6.88139 4.19966 6.83394C4.04331 6.22842 4.02763 5.59516 4.15382 4.98265C4.28001 4.37014 4.54471 3.79463 4.92765 3.30022C5.3106 2.80581 5.80163 2.4056 6.36312 2.13026C6.92462 1.85492 7.54169 1.71174 8.16706 1.7117Z" fill="white"/>
<path d="M14.9342 9.90693C14.7825 9.89883 14.6308 9.92174 14.4882 9.97426C14.3457 10.0268 14.2153 10.1078 14.1051 10.2124C13.995 10.317 13.9073 10.443 13.8474 10.5826C13.7876 10.7222 13.7568 10.8726 13.757 11.0245V9.90693C13.757 9.61053 13.6393 9.32627 13.4297 9.11668C13.2201 8.9071 12.9359 8.78935 12.6395 8.78935C12.3431 8.78935 12.0588 8.9071 11.8492 9.11668C11.6396 9.32627 11.5219 9.61053 11.5219 9.90693V9.16188C11.5219 8.86548 11.4041 8.58122 11.1945 8.37163C10.985 8.16204 10.7007 8.0443 10.4043 8.0443C10.1079 8.0443 9.82364 8.16204 9.61405 8.37163C9.40446 8.58122 9.28672 8.86548 9.28672 9.16188V6.245C9.29262 5.9508 9.1867 5.66531 8.99035 5.44614C8.794 5.22697 8.52182 5.09044 8.22875 5.06409C8.07705 5.05599 7.92529 5.0789 7.78274 5.13142C7.64019 5.18395 7.50985 5.26498 7.39968 5.36958C7.28951 5.47417 7.20181 5.60013 7.14196 5.73976C7.08211 5.87939 7.05135 6.02975 7.05156 6.18167V11.7696C7.05156 10.1901 4.81641 9.74302 4.81641 11.0245V14.0047C4.81641 15.1903 5.28738 16.3274 6.12573 17.1657C6.96408 18.0041 8.10112 18.475 9.28672 18.475H11.5219C12.7075 18.475 13.8445 18.0041 14.6829 17.1657C15.5212 16.3274 15.9922 15.1903 15.9922 14.0047V11.0878C15.9981 10.7936 15.8922 10.5081 15.6958 10.289C15.4995 10.0698 15.2273 9.93328 14.9342 9.90693Z" fill="white"/>
</g>
<defs>
<clipPath id="clip0_278_2701">
<rect width="17.8813" height="17.8813" fill="white" transform="translate(0.714844 0.966797)"/>
</clipPath>
</defs>
</svg>
