<svg width="10" height="10" viewBox="0 0 10 10" fill="none" xmlns="http://www.w3.org/2000/svg">
<g clip-path="url(#clip0_278_2716)">
<path d="M0.260469 4.04857C0.0918595 3.59313 -0.0302372 3.128 0.00658559 2.6338C0.0298421 2.32953 0.144187 2.06983 0.367061 1.85664C0.609317 1.62796 0.838006 1.38764 1.07639 1.15507C1.38647 0.848863 1.77602 0.850801 2.08611 1.15507C2.27797 1.34306 2.4679 1.53493 2.65783 1.7268C2.84194 1.91091 3.02799 2.09502 3.21211 2.28108C3.53576 2.60861 3.5377 2.9904 3.21405 3.31599C2.98148 3.54856 2.75085 3.78306 2.51441 4.01175C2.4524 4.07183 2.44658 4.12222 2.47953 4.1978C2.63457 4.5699 2.85938 4.90131 3.11133 5.2114C3.6191 5.83545 4.19276 6.38973 4.87689 6.81803C5.02418 6.90912 5.18504 6.97695 5.33814 7.06029C5.4176 7.10293 5.46993 7.08936 5.53388 7.02347C5.76451 6.78509 6.00095 6.55058 6.23739 6.31608C6.54748 6.00987 6.93509 6.00793 7.24517 6.31608C7.62503 6.69206 8.00295 7.06998 8.37893 7.44984C8.69483 7.76767 8.69289 8.15722 8.37505 8.477C8.15993 8.69406 7.93318 8.89949 7.73162 9.12624C7.43704 9.45571 7.06494 9.56424 6.64244 9.54098C6.02615 9.50804 5.4583 9.3026 4.90983 9.03709C3.69274 8.44599 2.65395 7.6262 1.78377 6.59128C1.14034 5.82382 0.609317 4.99046 0.260469 4.04857ZM9.54369 4.74239C9.54369 2.12797 7.41572 0 4.8013 0V0.903128C6.91765 0.903128 8.64057 2.62605 8.64057 4.74239H9.54369ZM6.94672 4.74239H7.84984C7.84984 3.06211 6.48159 1.69385 4.8013 1.69385V2.59698C5.37496 2.59698 5.91374 2.81985 6.31879 3.2249C6.72384 3.62995 6.94672 4.16873 6.94672 4.74239Z" fill="white"/>
</g>
<defs>
<clipPath id="clip0_278_2716">
<rect width="9.54401" height="9.54401" fill="white"/>
</clipPath>
</defs>
</svg>
